<svg width="70" height="70" viewBox="0 0 70 70" fill="none" xmlns="http://www.w3.org/2000/svg">
<rect x="0.15" y="0.15" width="69.7" height="69.7" rx="5.85" fill="#111111" stroke="#B960C1" stroke-width="0.3"/>
<path d="M23.7666 47.192C22.0813 47.192 20.524 46.9147 19.0946 46.36C17.6653 45.784 16.428 44.984 15.3826 43.96C14.3373 42.936 13.516 41.7307 12.9186 40.344C12.3426 38.9573 12.0546 37.4427 12.0546 35.8C12.0546 34.1573 12.3426 32.6427 12.9186 31.256C13.516 29.8693 14.3373 28.664 15.3826 27.64C16.4493 26.616 17.6973 25.8267 19.1266 25.272C20.556 24.696 22.1133 24.408 23.7986 24.408C25.42 24.408 26.9453 24.6853 28.3746 25.24C29.804 25.7733 31.0093 26.584 31.9906 27.672L30.4866 29.176C29.5693 28.2373 28.556 27.5653 27.4466 27.16C26.3373 26.7333 25.1426 26.52 23.8626 26.52C22.5186 26.52 21.2706 26.7547 20.1186 27.224C18.9666 27.672 17.964 28.3227 17.1106 29.176C16.2573 30.008 15.5853 30.9893 15.0946 32.12C14.6253 33.2293 14.3906 34.456 14.3906 35.8C14.3906 37.144 14.6253 38.3813 15.0946 39.512C15.5853 40.6213 16.2573 41.6027 17.1106 42.456C17.964 43.288 18.9666 43.9387 20.1186 44.408C21.2706 44.856 22.5186 45.08 23.8626 45.08C25.1426 45.08 26.3373 44.8667 27.4466 44.44C28.556 44.0133 29.5693 43.3307 30.4866 42.392L31.9906 43.896C31.0093 44.984 29.804 45.8053 28.3746 46.36C26.9453 46.9147 25.4093 47.192 23.7666 47.192ZM45.4136 47V24.6H47.7816V44.952H60.3256V47H45.4136Z" fill="#F9B5FF"/>
</svg>
