<svg width="70" height="70" viewBox="0 0 70 70" fill="none" xmlns="http://www.w3.org/2000/svg">
<rect x="0.2" y="0.2" width="69.6" height="69.6" rx="7.8" fill="#111111" stroke="#B960C1" stroke-width="0.4"/>
<path d="M26.0109 48.0493C24.1149 48.0493 22.3629 47.7373 20.7549 47.1133C19.1469 46.4653 17.7549 45.5653 16.5789 44.4133C15.4029 43.2613 14.4789 41.9053 13.8069 40.3453C13.1589 38.7853 12.8349 37.0813 12.8349 35.2333C12.8349 33.3853 13.1589 31.6813 13.8069 30.1213C14.4789 28.5613 15.4029 27.2053 16.5789 26.0533C17.7789 24.9013 19.1829 24.0133 20.7909 23.3893C22.3989 22.7413 24.1509 22.4173 26.0469 22.4173C27.8709 22.4173 29.5869 22.7293 31.1949 23.3533C32.8029 23.9533 34.1589 24.8653 35.2629 26.0893L33.5709 27.7813C32.5389 26.7253 31.3989 25.9693 30.1509 25.5133C28.9029 25.0333 27.5589 24.7933 26.1189 24.7933C24.6069 24.7933 23.2029 25.0573 21.9069 25.5853C20.6109 26.0893 19.4829 26.8213 18.5229 27.7813C17.5629 28.7173 16.8069 29.8213 16.2549 31.0933C15.7269 32.3413 15.4629 33.7213 15.4629 35.2333C15.4629 36.7453 15.7269 38.1373 16.2549 39.4093C16.8069 40.6573 17.5629 41.7613 18.5229 42.7213C19.4829 43.6573 20.6109 44.3893 21.9069 44.9173C23.2029 45.4213 24.6069 45.6733 26.1189 45.6733C27.5589 45.6733 28.9029 45.4333 30.1509 44.9533C31.3989 44.4733 32.5389 43.7053 33.5709 42.6493L35.2629 44.3413C34.1589 45.5653 32.8029 46.4893 31.1949 47.1133C29.5869 47.7373 27.8589 48.0493 26.0109 48.0493ZM40.9419 47.8333V22.6333H43.6059V45.5293H57.7179V47.8333H40.9419Z" fill="#F9B5FF"/>
</svg>
